<svg width="120" height="47" viewBox="0 0 120 47" fill="none" xmlns="http://www.w3.org/2000/svg">
<path d="M116.417 34.8828C114.068 34.8828 112.86 36.4265 112.668 36.6663C112.074 35.5444 110.99 34.8828 109.552 34.8828C107.481 34.8828 106.311 36.0814 106.119 36.2827C106.033 35.9567 105.611 35.0842 104.278 35.0842C103.895 35.0842 103.329 35.2088 103.281 35.2184C103.339 35.4677 103.588 36.695 103.588 38.3826V45.8136H106.302V38.2388C106.359 38.1908 107.376 37.1649 108.593 37.1649C109.811 37.1649 110.425 38.0758 110.425 39.3222V45.8136H113.157V38.2388C113.215 38.1908 114.212 37.1649 115.449 37.1649C116.686 37.1649 117.261 38.0758 117.261 39.3222V45.8136H120.003V38.9004C120.003 36.4745 118.623 34.8924 116.408 34.8924L116.417 34.8828Z" fill="#FF7A00"/>
<path d="M86.5922 43.8384C84.7416 43.8384 83.428 42.381 83.428 40.4729C83.428 38.3442 84.9238 37.0786 86.5922 37.0786C87.4935 37.0786 87.8675 37.3566 88.4619 37.3566C89.0948 37.3566 89.4399 37.0498 89.7468 36.4361C89.9194 36.1005 90.0248 35.8992 90.0248 35.8992C89.8906 35.8129 88.5099 34.8828 86.1703 34.8828C82.7472 34.8828 80.6953 37.3374 80.6953 40.4729C80.6953 43.8959 83.0349 46.0437 86.1703 46.0437C88.4428 46.0437 89.8235 45.1137 90.0632 44.9411L89.1235 43.0809C88.9126 43.2152 87.9442 43.8384 86.5922 43.8384Z" fill="#FF7A00"/>
<path d="M56.7725 34.8828C54.1645 34.8828 51.9688 37.0019 51.9688 40.4729C51.9688 43.9439 54.0974 46.0437 57.2903 46.0437C59.8217 46.0437 61.1353 44.9411 61.2887 44.8356C61.2887 44.8356 61.0394 44.4329 60.9723 44.3178C60.6175 43.7329 60.2148 43.5507 59.7641 43.5507C58.8724 43.5507 58.7574 43.9247 57.5396 43.9247C55.4589 43.9247 54.7302 42.2947 54.6823 41.2112H61.6626V40.4057C61.6626 37.0786 59.745 34.8828 56.7821 34.8828H56.7725ZM54.6727 39.2839C54.6727 38.0662 55.5261 36.9347 56.7246 36.9347C58.067 36.9347 58.8053 38.1045 58.8341 39.2839H54.6727Z" fill="#FF7A00"/>
<path d="M66.3169 42.7924V31.6698C66.3169 30.4137 65.4827 29.4453 64.1786 29.4453H63.5938V43.8855C63.5938 45.2183 64.4184 46.0429 65.847 46.0429C67.6113 46.0429 68.1387 44.7868 68.1387 43.6074C68.062 43.6458 67.688 43.7992 67.3141 43.7992C66.6812 43.7992 66.3073 43.4348 66.3073 42.802L66.3169 42.7924Z" fill="#FF7A00"/>
<path d="M48.1177 42.4185V37.1257H50.3902L51.186 35.0834H48.1177V31.8809C48.1177 31.8809 47.878 31.8809 47.8684 31.8809C46.6603 31.8809 45.4042 32.3986 45.4042 35.0546V35.0834H43.3906V37.1257H45.4042V43.3582C45.4042 45.1225 46.4493 46.043 47.926 46.043C49.1245 46.043 50.6682 45.6786 50.6682 43.3103C50.5724 43.3678 49.997 43.7417 49.3546 43.7417C48.4725 43.7417 48.1177 43.2048 48.1177 42.4185Z" fill="#FF7A00"/>
<path d="M73.8351 34.8828C71.227 34.8828 69.0312 37.0019 69.0312 40.4729C69.0312 43.9439 71.1599 46.0437 74.3528 46.0437C76.8842 46.0437 78.1978 44.9411 78.3512 44.8356C78.3512 44.8356 78.1019 44.4329 78.0348 44.3178C77.68 43.7329 77.2773 43.5507 76.8266 43.5507C75.9349 43.5507 75.8198 43.9247 74.6021 43.9247C72.5214 43.9247 71.7927 42.2947 71.7448 41.2112H78.7251V40.4057C78.7251 37.0786 76.8075 34.8828 73.8351 34.8828ZM71.7352 39.2839C71.7352 38.0662 72.5886 36.9347 73.7871 36.9347C75.1295 36.9347 75.8678 38.1045 75.8966 39.2839H71.7352Z" fill="#FF7A00"/>
<path d="M96.3077 46.0436C92.9805 46.0436 90.9766 43.8478 90.9766 40.4631C90.9766 37.0784 92.9518 34.873 96.3077 34.873C99.6637 34.873 101.648 37.0976 101.648 40.4631C101.648 43.6465 99.8267 46.0436 96.3077 46.0436ZM96.3077 43.9533C97.9761 43.9533 98.935 42.515 98.935 40.4727C98.935 38.4304 97.9953 36.9825 96.3077 36.9825C94.6202 36.9825 93.6805 38.4016 93.6805 40.4727C93.6805 42.5438 94.6202 43.9533 96.3077 43.9533Z" fill="#FF7A00"/>
<path d="M8.68711 33.9144C7.04749 33.1473 5.69552 32.524 5.69552 31.268C5.69552 30.3091 6.4626 29.6092 7.97757 29.6092C8.5337 29.6092 8.99394 29.6763 9.46377 29.7626C9.71307 29.8009 9.97196 29.8393 10.1925 29.8393C11.5157 29.8393 12.2636 29.053 12.7622 27.5476L12.9635 26.934C12.7526 26.8477 10.5856 25.8984 7.76662 25.8984C3.27924 25.8984 0.9109 28.775 0.9109 31.7666C0.9109 33.2719 1.38073 34.365 2.11904 35.228C3.0683 36.3306 4.42985 37.0594 5.69552 37.673C7.54609 38.5839 9.21447 39.2551 9.21447 40.5975C9.21447 41.7865 7.97757 42.4672 6.33795 42.4672C4.07508 42.4672 2.10945 41.1728 1.85057 41.0194L0 44.5C0.326006 44.6822 2.72311 46.2067 6.65436 46.2067C10.8445 46.2067 14.0183 43.8 14.0183 40.1085C14.0183 36.4169 11.0746 35.065 8.6967 33.9144H8.68711Z" fill="#EA002C"/>
<path d="M25.0749 35.6324L32.6785 26.3125H27.261L21.2012 34.3572H21.1149V26.3125H16.6562V46.0455H16.9247C18.852 46.0455 21.1532 45.1537 21.1532 41.932V37.3967H21.2395L27.4145 45.7962H33.0908L25.0749 35.6229V35.6324Z" fill="#EA002C"/>
<path d="M32.927 5.16797C31.3545 5.46521 29.0245 6.89388 29.0341 9.41564C29.0341 11.7073 30.9134 13.0976 30.923 16.0988C30.923 18.352 29.6861 19.8766 28.3438 20.7204C28.8903 20.6724 29.4848 20.6437 30.1368 20.6437C31.5079 20.6437 32.3421 20.7683 32.3901 20.7779L39.4376 12.1292C37.4815 9.19511 35.1899 6.92265 32.927 5.17756V5.16797Z" fill="#EA002C"/>
<path d="M38.8535 28.5269C39.7452 27.1461 39.8507 24.9408 39.9274 22.7067C40.0137 20.6164 40.4451 19.0439 43.245 19.0343C43.8682 19.0343 44.4531 19.1206 45.527 19.1111C49.6213 19.0919 52.306 17.6824 53.9648 16.7523C50.5609 14.5853 45.6037 12.3704 39.4384 12.1211C39.0356 13.2525 35.9194 21.93 35.6797 22.63C35.718 22.6684 36.2646 23.282 36.9454 24.4806C37.9521 26.1202 38.4891 27.5105 38.8535 28.5269Z" fill="#EA002C"/>
<path d="M23.9603 21.4397C23.6056 21.4397 23.4234 21.2096 23.3754 20.7973C23.3275 20.385 21.5632 4.25726 21.3043 1.8218C21.266 1.46703 21.1797 0.815016 21.1797 0.575305C21.1797 0.201357 21.4194 0 21.7071 0C22.5412 0 27.0957 1.06431 31.9283 4.44903C30.538 4.84215 28.0162 6.29 28.0258 9.29118C28.0258 11.9472 29.9339 13.4046 29.9435 16.0702C29.9627 20.3946 24.9863 21.4493 23.9507 21.4493L23.9603 21.4397Z" fill="#FF7A00"/>
<path d="M39.2596 29.6769C39.3363 29.8783 39.4034 30.0509 39.4801 30.166C39.5952 30.3577 39.739 30.444 39.9116 30.444C40.0267 30.444 40.1609 30.4057 40.3143 30.3385C40.6883 30.166 55.4065 23.3198 57.6214 22.2939C57.9474 22.1404 58.5515 21.8624 58.7528 21.7473C58.9638 21.6323 59.0597 21.4597 59.0597 21.2775C59.0597 21.1816 59.0309 21.0761 58.9734 20.9898C58.6953 20.5392 57.2762 19.0338 54.8887 17.375C52.9998 18.4201 50.0466 20.0214 45.6551 20.0406C44.5812 20.0406 44.3319 19.9735 43.6031 19.9735C41.4553 19.9735 40.928 20.8939 40.8417 22.7733C40.8321 23.1281 40.8225 23.6075 40.8033 24.1348C40.7362 25.8128 40.5348 28.1332 39.25 29.6769H39.2596Z" fill="#FF7A00"/>
</svg>
